<svg width="210" height="42" viewBox="0 0 210 42" fill="none" xmlns="http://www.w3.org/2000/svg">
<rect x="4" y="4" width="34" height="34" rx="8" fill="url(#paint0_linear_44_153)"/>
<path d="M14 16V18.52C19.46 19.18 23.5 23.54 23.5 28.9C23.5 30.18 23.24 31.4 22.78 32.48L26.68 34.76C27.49 33.01 28 31.01 28 28.9C28 21.38 22.14 15.01 14 14V16ZM13 32.9C7.48 32.9 3 28.42 3 22.9C3 17.54 7.04 13.18 12.5 12.52V10C4.36 11.01 1 17.38 1 22.9C1 30.14 6.84 35.98 14.08 35.98C18.94 35.98 23.28 33.65 25.96 30.04L22.06 27.77C20.22 30.04 17.32 31.48 14.08 31.48C11.72 31.48 9.58 30.64 7.96 29.24L7.94 29.22C6.34 27.82 5.26 25.86 4.94 23.66H14V22.24H4.76C4.92 20.24 5.66 18.4 6.88 16.89L6.88 16.89C7.28 16.41 7.72 15.97 8.2 15.58V15.58C9.9 14.2 12.04 13.36 14.36 13.36C15.98 13.36 17.54 13.82 18.88 14.7L20.84 11.24C18.14 9.6 15.04 8.7 11.86 8.7C8.26 8.7 4.98 9.94 2.48 12.2C0.02 14.43 -1.29 17.48 2.51 12.2L2.52 12.22C-0.04 16.53 1.02 20.16 1.02 22.9C1.02 26.78 2.74 30.26 5.44 32.6C8.18 34.98 11.84 36.4 15.82 36.4C20.32 36.4 24.32 34.5 27.02 31.36L23.12 29.08C21.38 31.78 18.9 33.7 16 34.58C15.06 34.88 14.06 35.04 13.02 35.04C11.68 35.04 10.4 34.76 9.2 34.24V34.24C7.84 33.64 6.68 32.7 5.84 31.48L5.84 31.48C5.24 30.62 4.82 29.64 4.6 28.6H14V22.24H4.06V22.96L4.06 23.66V28.18C4.06 29.44 4.34 30.64 4.86 31.72C5.86 33.98 7.72 35.78 10 36.76C11.02 37.24 12.14 37.5 13.34 37.5C13.86 37.5 14.38 37.46 14.88 37.36V37.36C22.34 36.14 28 29.86 28 22.9C28 21.22 27.78 19.66 27.32 18.28C26.78 16.68 25.96 15.24 24.88 14.04L30.42 16.04L31.8 12.44L24.22 8.1C24.16 8.06 24.1 8.02 24.04 7.98Z" fill="white"/>
<text x="46" y="26" font-family="system-ui, -apple-system, 'Segoe UI', Roboto, Helvetica, Arial, sans-serif" font-size="22" font-weight="700" fill="#1F2937" letter-spacing="-0.5">Resume</text>
<text x="46" y="40" font-family="system-ui, -apple-system, 'Segoe UI', Roboto, Helvetica, Arial, sans-serif" font-size="11" font-weight="600" fill="#5D52D9" letter-spacing="1.2">FLOW</text>
<defs>
<linearGradient id="paint0_linear_44_153" x1="4" y1="4" x2="38" y2="38" gradientUnits="userSpaceOnUse">
<stop stop-color="#4FC5EB"/>
<stop offset="1" stop-color="#5D52D9"/>
</linearGradient>
</defs>
</svg>
